<svg version="1.1" xmlns="http://www.w3.org/2000/svg" viewBox="0 0 976.5733258729015 386.96110445511107" width="976.5733258729015" height="386.96110445511107">
  <!-- svg-source:excalidraw -->
  
  <defs>
    <style class="style-fonts">
      @font-face {
        font-family: "Virgil";
        src: url("https://excalidraw.com/Virgil.woff2");
      }
      @font-face {
        font-family: "Cascadia";
        src: url("https://excalidraw.com/Cascadia.woff2");
      }
    </style>
    
  </defs>
  <rect x="0" y="0" width="976.5733258729015" height="386.96110445511107" fill="#ffffff"></rect><g stroke-linecap="round" transform="translate(10 62.40501613636607) rotate(0 86.4187439523239 46.17308901334182)"><path d="M23.09 0 M23.09 0 C56.29 0.43, 85.39 -3.69, 149.75 0 M23.09 0 C59.54 4.02, 94.9 1.26, 149.75 0 M149.75 0 C164.85 0.11, 173.42 6.55, 172.84 23.09 M149.75 0 C161.32 2, 173.1 8.54, 172.84 23.09 M172.84 23.09 C168.76 37.47, 172.41 54.36, 172.84 69.26 M172.84 23.09 C172.96 33.71, 171.13 45.55, 172.84 69.26 M172.84 69.26 C170.14 83.84, 164.05 94.95, 149.75 92.35 M172.84 69.26 C171.26 87.6, 167.36 91.95, 149.75 92.35 M149.75 92.35 C103.18 91.97, 59.21 95.79, 23.09 92.35 M149.75 92.35 C108.48 93.24, 66.36 91.39, 23.09 92.35 M23.09 92.35 C7.39 94.72, -0.74 88.05, 0 69.26 M23.09 92.35 C3.98 95.14, 2.28 84.08, 0 69.26 M0 69.26 C-0.8 54.94, -4.23 39.27, 0 23.09 M0 69.26 C1.15 52.4, -1.91 37.13, 0 23.09 M0 23.09 C1.82 11.06, 10.09 -3.54, 23.09 0 M0 23.09 C-4.6 5, 12.14 1.57, 23.09 0" stroke="#1e1e1e" stroke-width="4" fill="none"></path></g><g transform="translate(18.638790949394206 83.57810514970788) rotate(0 77.77995300292969 25)"><text x="77.77995300292969" y="0" font-family="Virgil, Segoe UI Emoji" font-size="20px" fill="#1e1e1e" text-anchor="middle" style="white-space: pre;" direction="ltr" dominant-baseline="text-before-edge">Repo</text><text x="77.77995300292969" y="25" font-family="Virgil, Segoe UI Emoji" font-size="20px" fill="#1e1e1e" text-anchor="middle" style="white-space: pre;" direction="ltr" dominant-baseline="text-before-edge">$HOME/foo/123</text></g><g stroke-linecap="round" transform="translate(326.89100820061503 175.76365727348414) rotate(0 86.4187439523239 46.17308901334182)"><path d="M23.09 0 M23.09 0 C66.52 -0.45, 107.83 2.88, 149.75 0 M23.09 0 C72.04 1.33, 121.58 0.71, 149.75 0 M149.75 0 C161.82 1.74, 173.06 8.43, 172.84 23.09 M149.75 0 C168.12 -2.17, 175.56 3.51, 172.84 23.09 M172.84 23.09 C170.39 33.72, 176.12 45.56, 172.84 69.26 M172.84 23.09 C170.74 35.59, 171.54 50.21, 172.84 69.26 M172.84 69.26 C171.47 87.22, 167.07 92, 149.75 92.35 M172.84 69.26 C175.98 86.24, 164.69 92.43, 149.75 92.35 M149.75 92.35 C113.17 94.94, 75.44 94.54, 23.09 92.35 M149.75 92.35 C109.43 91.62, 69.05 92.14, 23.09 92.35 M23.09 92.35 C4.46 94.77, 1.98 84.15, 0 69.26 M23.09 92.35 C10.63 94.93, 0.15 84.32, 0 69.26 M0 69.26 C2.4 52.45, 0.96 38.08, 0 23.09 M0 69.26 C1.8 59.91, 2.09 45.44, 0 23.09 M0 23.09 C-4 5.35, 11.56 1.37, 23.09 0 M0 23.09 C2.83 5.61, 11.89 0.9, 23.09 0" stroke="#1e1e1e" stroke-width="4" fill="none"></path></g><g transform="translate(381.30978267051705 209.43674628682595) rotate(0 31.999969482421875 12.5)"><text x="31.999969482421875" y="0" font-family="Virgil, Segoe UI Emoji" font-size="20px" fill="#1e1e1e" text-anchor="middle" style="white-space: pre;" direction="ltr" dominant-baseline="text-before-edge">GitHub</text></g><g stroke-linecap="round" transform="translate(323.70847589999903 62.62085654244456) rotate(0 86.4187439523239 46.17308901334182)"><path d="M23.09 0 M23.09 0 C58.82 -0.15, 85.53 -1.25, 149.75 0 M23.09 0 C59.77 1.6, 99.89 1.09, 149.75 0 M149.75 0 C167.73 -1.89, 175.21 4.06, 172.84 23.09 M149.75 0 C162.32 0.01, 170.08 4.88, 172.84 23.09 M172.84 23.09 C172.78 33.24, 174.42 47.2, 172.84 69.26 M172.84 23.09 C171.9 37.29, 173.55 48.75, 172.84 69.26 M172.84 69.26 C175.57 86.03, 164.75 92.42, 149.75 92.35 M172.84 69.26 C172.69 87.82, 169.39 93.51, 149.75 92.35 M149.75 92.35 C111.63 90.28, 69.12 91.94, 23.09 92.35 M149.75 92.35 C102.61 95.71, 59.7 94.25, 23.09 92.35 M23.09 92.35 C10.25 94.59, 0.13 84.37, 0 69.26 M23.09 92.35 C10.55 88.08, 4.16 86.43, 0 69.26 M0 69.26 C-2.47 51.65, -1.75 43.57, 0 23.09 M0 69.26 C-2.55 50.36, 1.38 34.48, 0 23.09 M0 23.09 C2.46 5.88, 11.34 0.79, 23.09 0 M0 23.09 C3.18 9.73, 10.91 -0.51, 23.09 0" stroke="#1e1e1e" stroke-width="4" fill="none"></path></g><g transform="translate(376.6572415198034 96.29394555578637) rotate(0 33.46997833251953 12.5)"><text x="33.46997833251953" y="0" font-family="Virgil, Segoe UI Emoji" font-size="20px" fill="#1e1e1e" text-anchor="middle" style="white-space: pre;" direction="ltr" dominant-baseline="text-before-edge">GitLab</text></g><g stroke-linecap="round" transform="translate(327.4590504338885 284.6149264284274) rotate(0 86.4187439523239 46.17308901334184)"><path d="M23.09 0 M23.09 0 C63.73 0.77, 103.01 -3.14, 149.75 0 M23.09 0 C67.88 -1.41, 111.28 -2.28, 149.75 0 M149.75 0 C162.69 0.01, 170.44 5.25, 172.84 23.09 M149.75 0 C164.69 3.77, 173.33 6.76, 172.84 23.09 M172.84 23.09 C172.22 32.1, 175.63 41.93, 172.84 69.26 M172.84 23.09 C174.65 40.59, 173.09 56.76, 172.84 69.26 M172.84 69.26 C172.71 87.41, 168.84 93.36, 149.75 92.35 M172.84 69.26 C173.13 85.65, 164.97 93.13, 149.75 92.35 M149.75 92.35 C120.38 91.41, 89.66 88.92, 23.09 92.35 M149.75 92.35 C105.35 93.15, 58.45 91.89, 23.09 92.35 M23.09 92.35 C10.18 88.64, 3.62 86.2, 0 69.26 M23.09 92.35 C7.59 92.47, 2.59 81.84, 0 69.26 M0 69.26 C3.76 62.26, -3.15 46.47, 0 23.09 M0 69.26 C0.34 57.21, 0.93 47.36, 0 23.09 M0 23.09 C2.77 9.46, 10.49 -0.44, 23.09 0 M0 23.09 C2.81 3.41, 3.43 -0.47, 23.09 0" stroke="#1e1e1e" stroke-width="4" fill="none"></path></g><g transform="translate(345.0278569472475 318.28801544176923) rotate(0 68.84993743896484 12.5)"><text x="68.84993743896484" y="0" font-family="Virgil, Segoe UI Emoji" font-size="20px" fill="#1e1e1e" text-anchor="middle" style="white-space: pre;" direction="ltr" dominant-baseline="text-before-edge">Azure DevOps</text></g><g stroke-linecap="round" transform="translate(10.806821531677997 172.5013373553036) rotate(0 86.4187439523239 46.17308901334182)"><path d="M23.09 0 M23.09 0 C64.67 2.33, 103.5 4.69, 149.75 0 M23.09 0 C53.89 2.31, 85.93 1.08, 149.75 0 M149.75 0 C164.75 3.28, 173.26 6.88, 172.84 23.09 M149.75 0 C161.41 0.95, 169.74 6.76, 172.84 23.09 M172.84 23.09 C176.01 37.6, 173.1 51, 172.84 69.26 M172.84 23.09 C172.68 39.91, 174.59 54.49, 172.84 69.26 M172.84 69.26 C173.09 85.52, 164.99 93.03, 149.75 92.35 M172.84 69.26 C170.57 81.18, 164.79 95.08, 149.75 92.35 M149.75 92.35 C116.52 92.28, 77.93 92.85, 23.09 92.35 M149.75 92.35 C105.89 90.31, 61.35 92.94, 23.09 92.35 M23.09 92.35 C7.61 92.45, 2.25 82.2, 0 69.26 M23.09 92.35 C3.26 90.36, 2.09 88.51, 0 69.26 M0 69.26 C-1.53 56.5, 2.18 38.48, 0 23.09 M0 69.26 C0.54 58.38, 0.55 45.52, 0 23.09 M0 23.09 C2.44 3.97, 3.99 -0.41, 23.09 0 M0 23.09 C3.37 3.82, 8.91 4.42, 23.09 0" stroke="#1e1e1e" stroke-width="4" fill="none"></path></g><g transform="translate(33.665598442986266 193.6744263686454) rotate(0 63.559967041015625 25)"><text x="63.559967041015625" y="0" font-family="Virgil, Segoe UI Emoji" font-size="20px" fill="#1e1e1e" text-anchor="middle" style="white-space: pre;" direction="ltr" dominant-baseline="text-before-edge">Repo</text><text x="63.559967041015625" y="25" font-family="Virgil, Segoe UI Emoji" font-size="20px" fill="#1e1e1e" text-anchor="middle" style="white-space: pre;" direction="ltr" dominant-baseline="text-before-edge">$HOME/gaga</text></g><g stroke-linecap="round" transform="translate(12.303931095877488 282.68417439814533) rotate(0 86.4187439523239 46.17308901334184)"><path d="M23.09 0 M23.09 0 C59.91 0.73, 96.86 -4.09, 149.75 0 M23.09 0 C60.93 3.19, 99.38 1.14, 149.75 0 M149.75 0 C161.9 0.82, 170.14 6.89, 172.84 23.09 M149.75 0 C163.88 2.99, 171.26 10.65, 172.84 23.09 M172.84 23.09 C174.14 38.77, 172.83 55.11, 172.84 69.26 M172.84 23.09 C173.82 40.55, 173.62 57.49, 172.84 69.26 M172.84 69.26 C170.86 81.64, 164.83 94.72, 149.75 92.35 M172.84 69.26 C171.99 88.56, 161.42 95.14, 149.75 92.35 M149.75 92.35 C107.73 94.1, 60.93 96.45, 23.09 92.35 M149.75 92.35 C123.45 93.38, 98.36 92.1, 23.09 92.35 M23.09 92.35 C3.83 90.62, 1.82 88.01, 0 69.26 M23.09 92.35 C10.45 88.27, -4.6 81.95, 0 69.26 M0 69.26 C-2.13 54.59, 0.47 35.4, 0 23.09 M0 69.26 C0.57 51.5, -2.5 37.27, 0 23.09 M0 23.09 C2.93 4.33, 8.75 3.84, 23.09 0 M0 23.09 C-2.73 8.67, 12.25 -4.19, 23.09 0" stroke="#1e1e1e" stroke-width="4" fill="none"></path></g><g transform="translate(51.552707396834194 303.85726341148717) rotate(0 47.16996765136719 25)"><text x="47.16996765136719" y="0" font-family="Virgil, Segoe UI Emoji" font-size="20px" fill="#1e1e1e" text-anchor="middle" style="white-space: pre;" direction="ltr" dominant-baseline="text-before-edge">Repo</text><text x="47.16996765136719" y="25" font-family="Virgil, Segoe UI Emoji" font-size="20px" fill="#1e1e1e" text-anchor="middle" style="white-space: pre;" direction="ltr" dominant-baseline="text-before-edge">/opt/bala</text></g><g transform="translate(60.016552838656935 10) rotate(0 37.51995849609375 12.5)"><text x="0" y="0" font-family="Virgil, Segoe UI Emoji" font-size="20px" fill="#1e1e1e" text-anchor="start" style="white-space: pre;" direction="ltr" dominant-baseline="text-before-edge">Sources</text></g><g transform="translate(342.46769949418376 12.83865914022229) rotate(0 61.35993957519531 12.5)"><text x="0" y="0" font-family="Virgil, Segoe UI Emoji" font-size="20px" fill="#1e1e1e" text-anchor="start" style="white-space: pre;" direction="ltr" dominant-baseline="text-before-edge">Destinations</text></g><g stroke-linecap="round"><g transform="translate(197.7758449499961 113.14829832281768) rotate(0 57.33155517402429 -1.7915817076413987)"><path d="M0 0 C19.11 -0.6, 95.55 -2.99, 114.66 -3.58 M0 0 C19.11 -0.6, 95.55 -2.99, 114.66 -3.58" stroke="#1e1e1e" stroke-width="1" fill="none"></path></g><g transform="translate(197.7758449499961 113.14829832281768) rotate(0 57.33155517402429 -1.7915817076413987)"><path d="M86.81 7.55 C93.49 4.88, 100.18 2.21, 114.66 -3.58 M86.81 7.55 C96.98 3.49, 107.15 -0.58, 114.66 -3.58" stroke="#1e1e1e" stroke-width="1" fill="none"></path></g><g transform="translate(197.7758449499961 113.14829832281768) rotate(0 57.33155517402429 -1.7915817076413987)"><path d="M86.17 -12.96 C93 -10.71, 99.84 -8.46, 114.66 -3.58 M86.17 -12.96 C96.57 -9.54, 106.97 -6.11, 114.66 -3.58" stroke="#1e1e1e" stroke-width="1" fill="none"></path></g></g><mask></mask><g stroke-linecap="round"><g transform="translate(196.69813200983117 202.79587055680685) rotate(0 55.705587552290126 -30.46454575976884)"><path d="M0 0 C18.57 -10.15, 92.84 -50.77, 111.41 -60.93 M0 0 C18.57 -10.15, 92.84 -50.77, 111.41 -60.93" stroke="#1e1e1e" stroke-width="1" fill="none"></path></g><g transform="translate(196.69813200983117 202.79587055680685) rotate(0 55.705587552290126 -30.46454575976884)"><path d="M91.6 -38.4 C97.35 -44.94, 103.1 -51.48, 111.41 -60.93 M91.6 -38.4 C98.82 -46.61, 106.03 -54.81, 111.41 -60.93" stroke="#1e1e1e" stroke-width="1" fill="none"></path></g><g transform="translate(196.69813200983117 202.79587055680685) rotate(0 55.705587552290126 -30.46454575976884)"><path d="M81.75 -56.4 C90.36 -57.72, 98.97 -59.03, 111.41 -60.93 M81.75 -56.4 C92.56 -58.05, 103.36 -59.7, 111.41 -60.93" stroke="#1e1e1e" stroke-width="1" fill="none"></path></g></g><mask></mask><g stroke-linecap="round"><g transform="translate(196.77778570391092 311.0710045384123) rotate(0 59.146273777972965 -72.03289130722496)"><path d="M0 0 C19.72 -24.01, 98.58 -120.05, 118.29 -144.07 M0 0 C19.72 -24.01, 98.58 -120.05, 118.29 -144.07" stroke="#1e1e1e" stroke-width="1" fill="none"></path></g><g transform="translate(196.77778570391092 311.0710045384123) rotate(0 59.146273777972965 -72.03289130722496)"><path d="M108.33 -115.77 C111.43 -124.56, 114.52 -133.35, 118.29 -144.07 M108.33 -115.77 C111.24 -124.01, 114.14 -132.26, 118.29 -144.07" stroke="#1e1e1e" stroke-width="1" fill="none"></path></g><g transform="translate(196.77778570391092 311.0710045384123) rotate(0 59.146273777972965 -72.03289130722496)"><path d="M92.47 -128.79 C100.49 -133.54, 108.51 -138.28, 118.29 -144.07 M92.47 -128.79 C100 -133.24, 107.52 -137.69, 118.29 -144.07" stroke="#1e1e1e" stroke-width="1" fill="none"></path></g></g><mask></mask><g stroke-linecap="round"><g transform="translate(194.6709686059403 230.93126021446045) rotate(0 61.06938565481232 -2.8448368420502277)"><path d="M0 0 C20.36 -0.95, 101.78 -4.74, 122.14 -5.69 M0 0 C20.36 -0.95, 101.78 -4.74, 122.14 -5.69" stroke="#1e1e1e" stroke-width="1" fill="none"></path></g><g transform="translate(194.6709686059403 230.93126021446045) rotate(0 61.06938565481232 -2.8448368420502277)"><path d="M94.46 5.87 C100.52 3.34, 106.57 0.81, 122.14 -5.69 M94.46 5.87 C103.72 2, 112.98 -1.86, 122.14 -5.69" stroke="#1e1e1e" stroke-width="1" fill="none"></path></g><g transform="translate(194.6709686059403 230.93126021446045) rotate(0 61.06938565481232 -2.8448368420502277)"><path d="M93.5 -14.63 C99.77 -12.67, 106.04 -10.71, 122.14 -5.69 M93.5 -14.63 C103.08 -11.64, 112.66 -8.65, 122.14 -5.69" stroke="#1e1e1e" stroke-width="1" fill="none"></path></g></g><mask></mask><g stroke-linecap="round"><g transform="translate(200.9131528271355 340.9808821143517) rotate(0 58.03422555170346 -2.9558951168519343)"><path d="M0 0 C19.34 -0.99, 96.72 -4.93, 116.07 -5.91 M0 0 C19.34 -0.99, 96.72 -4.93, 116.07 -5.91" stroke="#1e1e1e" stroke-width="1" fill="none"></path></g><g transform="translate(200.9131528271355 340.9808821143517) rotate(0 58.03422555170346 -2.9558951168519343)"><path d="M88.44 5.77 C94.86 3.05, 101.29 0.33, 116.07 -5.91 M88.44 5.77 C96.78 2.24, 105.12 -1.28, 116.07 -5.91" stroke="#1e1e1e" stroke-width="1" fill="none"></path></g><g transform="translate(200.9131528271355 340.9808821143517) rotate(0 58.03422555170346 -2.9558951168519343)"><path d="M87.39 -14.73 C94.06 -12.67, 100.74 -10.62, 116.07 -5.91 M87.39 -14.73 C96.05 -12.06, 104.7 -9.4, 116.07 -5.91" stroke="#1e1e1e" stroke-width="1" fill="none"></path></g></g><mask></mask><g stroke-linecap="round"><g transform="translate(193.96155770773112 138.4847289971116) rotate(0 61.12650675167606 26.194365248916)"><path d="M0 0 C20.38 8.73, 101.88 43.66, 122.25 52.39 M0 0 C20.38 8.73, 101.88 43.66, 122.25 52.39" stroke="#1e1e1e" stroke-width="1" fill="none"></path></g><g transform="translate(193.96155770773112 138.4847289971116) rotate(0 61.12650675167606 26.194365248916)"><path d="M92.3 50.72 C100.47 51.17, 108.63 51.63, 122.25 52.39 M92.3 50.72 C103.35 51.33, 114.4 51.95, 122.25 52.39" stroke="#1e1e1e" stroke-width="1" fill="none"></path></g><g transform="translate(193.96155770773112 138.4847289971116) rotate(0 61.12650675167606 26.194365248916)"><path d="M100.38 31.85 C106.35 37.45, 112.31 43.05, 122.25 52.39 M100.38 31.85 C108.45 39.43, 116.52 47, 122.25 52.39" stroke="#1e1e1e" stroke-width="1" fill="none"></path></g></g><mask></mask><g transform="translate(637.6535871033702 37.430028328281054) rotate(0 164.45986938476562 75)"><text x="0" y="0" font-family="Virgil, Segoe UI Emoji" font-size="20px" fill="#1e1e1e" text-anchor="start" style="white-space: pre;" direction="ltr" dominant-baseline="text-before-edge">Use-Cases:</text><text x="0" y="25" font-family="Virgil, Segoe UI Emoji" font-size="20px" fill="#1e1e1e" text-anchor="start" style="white-space: pre;" direction="ltr" dominant-baseline="text-before-edge">- Show repos in config</text><text x="0" y="50" font-family="Virgil, Segoe UI Emoji" font-size="20px" fill="#1e1e1e" text-anchor="start" style="white-space: pre;" direction="ltr" dominant-baseline="text-before-edge">- Add repos to config</text><text x="0" y="75" font-family="Virgil, Segoe UI Emoji" font-size="20px" fill="#1e1e1e" text-anchor="start" style="white-space: pre;" direction="ltr" dominant-baseline="text-before-edge">- Remove repos to configv</text><text x="0" y="100" font-family="Virgil, Segoe UI Emoji" font-size="20px" fill="#1e1e1e" text-anchor="start" style="white-space: pre;" direction="ltr" dominant-baseline="text-before-edge">- Sync 1-m repo to 1-n destination</text><text x="0" y="125" font-family="Virgil, Segoe UI Emoji" font-size="20px" fill="#1e1e1e" text-anchor="start" style="white-space: pre;" direction="ltr" dominant-baseline="text-before-edge">- Add new sync config</text></g></svg>